<svg width="139" height="156" viewBox="0 0 139 156" fill="none" xmlns="http://www.w3.org/2000/svg">
<path d="M139 117C139 138.539 107.884 156 69.5 156C31.1162 156 0 138.539 0 117C0 95.4609 31.1162 78 69.5 78C107.884 78 139 95.4609 139 117Z" fill="white"/>
<path fill-rule="evenodd" clip-rule="evenodd" d="M112.772 134.112C123.624 128.022 127 121.494 127 117C127 112.506 123.624 105.978 112.772 99.8878C102.301 94.012 87.0259 90 69.5 90C51.9741 90 36.6995 94.012 26.2285 99.8878C15.3756 105.978 12 112.506 12 117C12 121.494 15.3756 128.022 26.2285 134.112C36.6995 139.988 51.9741 144 69.5 144C87.0259 144 102.301 139.988 112.772 134.112ZM69.5 156C107.884 156 139 138.539 139 117C139 95.4609 107.884 78 69.5 78C31.1162 78 0 95.4609 0 117C0 138.539 31.1162 156 69.5 156Z" fill="#1D2F3B"/>
<path d="M139 78C139 99.5391 107.884 117 69.5 117C31.1162 117 0 99.5391 0 78C0 56.4609 31.1162 39 69.5 39C107.884 39 139 56.4609 139 78Z" fill="white"/>
<path fill-rule="evenodd" clip-rule="evenodd" d="M112.772 95.1122C123.624 89.0221 127 82.4941 127 78C127 73.5059 123.624 66.9779 112.772 60.8878C102.301 55.012 87.0259 51 69.5 51C51.9741 51 36.6995 55.012 26.2285 60.8878C15.3756 66.9779 12 73.5059 12 78C12 82.4941 15.3756 89.0221 26.2285 95.1122C36.6995 100.988 51.9741 105 69.5 105C87.0259 105 102.301 100.988 112.772 95.1122ZM69.5 117C107.884 117 139 99.5391 139 78C139 56.4609 107.884 39 69.5 39C31.1162 39 0 56.4609 0 78C0 99.5391 31.1162 117 69.5 117Z" fill="#1D2F3B"/>
<path d="M139 39C139 60.5391 107.884 78 69.5 78C31.1162 78 0 60.5391 0 39C0 17.4609 31.1162 0 69.5 0C107.884 0 139 17.4609 139 39Z" fill="white"/>
<path fill-rule="evenodd" clip-rule="evenodd" d="M112.772 56.1122C123.624 50.0221 127 43.4941 127 39C127 34.5059 123.624 27.9779 112.772 21.8878C102.301 16.012 87.0259 12 69.5 12C51.9741 12 36.6995 16.012 26.2285 21.8878C15.3756 27.9779 12 34.5059 12 39C12 43.4941 15.3756 50.0221 26.2285 56.1122C36.6995 61.988 51.9741 66 69.5 66C87.0259 66 102.301 61.988 112.772 56.1122ZM69.5 78C107.884 78 139 60.5391 139 39C139 17.4609 107.884 0 69.5 0C31.1162 0 0 17.4609 0 39C0 60.5391 31.1162 78 69.5 78Z" fill="#1D2F3B"/>
</svg>
